<svg width="288" height="445" viewBox="0 0 288 445" fill="none" xmlns="http://www.w3.org/2000/svg">
<rect x="0.75" y="0.75" width="286" height="443.5" rx="19.25" fill="white"/>
<rect x="0.75" y="0.75" width="286" height="443.5" rx="19.25" stroke="#C8D400" stroke-width="1.5"/>
<g clip-path="url(#clip0_1_159)">
<g clip-path="url(#clip1_1_159)">
<path d="M115.95 258.55C116.1 257.55 116.25 256.55 116.25 255.5V248C116.25 239.75 109.5 233 101.25 233H96.25C88 233 81.25 239.75 81.25 248V255.5C81.25 256.55 81.4 257.55 81.55 258.55C73.55 264.1 68.75 273.15 68.75 283V285.5C68.75 292.4 74.35 298 81.25 298H116.25C123.15 298 128.75 292.4 128.75 285.5V283C128.75 273.15 123.95 264.1 115.95 258.55ZM91.25 248C91.25 245.25 93.5 243 96.25 243H101.25C104 243 106.25 245.25 106.25 248V255.5C106.25 259.65 102.9 263 98.75 263C94.6 263 91.25 259.65 91.25 255.5V248ZM118.75 285.5C118.75 286.9 117.65 288 116.25 288H81.25C79.85 288 78.75 286.9 78.75 285.5V283C78.75 276.95 81.55 271.35 86.2 267.6C89.4 270.9 93.85 273 98.75 273C103.65 273 108.15 270.9 111.3 267.6C115.95 271.35 118.75 276.9 118.75 283V285.5Z" fill="#00537F"/>
<path d="M205.95 258.55C206.1 257.55 206.25 256.55 206.25 255.5V248C206.25 239.75 199.5 233 191.25 233H186.25C178 233 171.25 239.75 171.25 248V255.5C171.25 256.55 171.4 257.55 171.55 258.55C163.55 264.1 158.75 273.15 158.75 283V285.5C158.75 292.4 164.35 298 171.25 298H206.25C213.15 298 218.75 292.4 218.75 285.5V283C218.75 273.15 213.95 264.1 205.95 258.55ZM181.25 248C181.25 245.25 183.5 243 186.25 243H191.25C194 243 196.25 245.25 196.25 248V255.5C196.25 259.65 192.9 263 188.75 263C184.6 263 181.25 259.65 181.25 255.5V248ZM208.75 285.5C208.75 286.9 207.65 288 206.25 288H171.25C169.85 288 168.75 286.9 168.75 285.5V283C168.75 276.95 171.55 271.35 176.2 267.6C179.4 270.9 183.85 273 188.75 273C193.65 273 198.15 270.9 201.3 267.6C205.95 271.35 208.75 276.9 208.75 283V285.5Z" fill="#00537F"/>
<path d="M163.75 248C163.75 245.25 161.5 243 158.75 243H148.75V228C148.75 225.25 146.5 223 143.75 223C141 223 138.75 225.25 138.75 228V243H128.75C126 243 123.75 245.25 123.75 248C123.75 250.75 126 253 128.75 253H158.75C161.5 253 163.75 250.75 163.75 248Z" fill="#00537F"/>
<path d="M166.05 178.051C161.95 186.301 153.55 192.001 143.75 192.001C133.95 192.001 125.5 186.251 121.45 178.051C116.7 183.351 113.75 190.351 113.75 198.001V205.501C113.75 212.401 119.35 218.001 126.25 218.001H161.25C168.15 218.001 173.75 212.401 173.75 205.501V198.001C173.75 190.351 170.85 183.351 166.05 178.051Z" fill="#C8D400"/>
<path d="M143.75 182C152 182 158.75 175.25 158.75 167V161C158.75 153.85 152.9 148 145.75 148H141.75C134.6 148 128.75 153.85 128.75 161V167C128.75 175.25 135.5 182 143.75 182Z" fill="#C8D400"/>
</g>
</g>
<path d="M22.9395 397.755H25.5674C25.5146 398.616 25.2773 399.381 24.8555 400.049C24.4395 400.717 23.8564 401.238 23.1064 401.613C22.3623 401.988 21.4658 402.176 20.417 402.176C19.5967 402.176 18.8613 402.035 18.2109 401.754C17.5605 401.467 17.0039 401.057 16.541 400.523C16.084 399.99 15.7354 399.346 15.4951 398.59C15.2549 397.834 15.1348 396.987 15.1348 396.05V395.162C15.1348 394.225 15.2578 393.378 15.5039 392.622C15.7559 391.86 16.1133 391.213 16.5762 390.68C17.0449 390.146 17.6045 389.736 18.2549 389.449C18.9053 389.162 19.6318 389.019 20.4346 389.019C21.501 389.019 22.4004 389.212 23.1328 389.599C23.8711 389.985 24.4424 390.519 24.8467 391.198C25.2568 391.878 25.5029 392.651 25.585 393.519H22.9482C22.9189 393.003 22.8164 392.566 22.6406 392.209C22.4648 391.846 22.1982 391.573 21.8408 391.392C21.4893 391.204 21.0205 391.11 20.4346 391.11C19.9951 391.11 19.6113 391.192 19.2832 391.356C18.9551 391.521 18.6797 391.77 18.457 392.104C18.2344 392.438 18.0674 392.859 17.9561 393.369C17.8506 393.873 17.7979 394.465 17.7979 395.145V396.05C17.7979 396.712 17.8477 397.295 17.9473 397.799C18.0469 398.297 18.1992 398.719 18.4043 399.064C18.6152 399.404 18.8848 399.662 19.2129 399.838C19.5469 400.008 19.9482 400.093 20.417 400.093C20.9678 400.093 21.4219 400.005 21.7793 399.829C22.1367 399.653 22.4092 399.393 22.5967 399.047C22.79 398.701 22.9043 398.271 22.9395 397.755ZM26.7363 397.342V397.157C26.7363 396.46 26.8359 395.818 27.0352 395.232C27.2344 394.641 27.5244 394.128 27.9053 393.694C28.2861 393.261 28.7549 392.924 29.3115 392.684C29.8682 392.438 30.5068 392.314 31.2275 392.314C31.9482 392.314 32.5898 392.438 33.1523 392.684C33.7148 392.924 34.1865 393.261 34.5674 393.694C34.9541 394.128 35.2471 394.641 35.4463 395.232C35.6455 395.818 35.7451 396.46 35.7451 397.157V397.342C35.7451 398.033 35.6455 398.675 35.4463 399.267C35.2471 399.853 34.9541 400.365 34.5674 400.805C34.1865 401.238 33.7178 401.575 33.1611 401.815C32.6045 402.056 31.9658 402.176 31.2451 402.176C30.5244 402.176 29.8828 402.056 29.3203 401.815C28.7637 401.575 28.292 401.238 27.9053 400.805C27.5244 400.365 27.2344 399.853 27.0352 399.267C26.8359 398.675 26.7363 398.033 26.7363 397.342ZM29.2676 397.157V397.342C29.2676 397.74 29.3027 398.112 29.373 398.458C29.4434 398.804 29.5547 399.108 29.707 399.372C29.8652 399.63 30.0703 399.832 30.3223 399.979C30.5742 400.125 30.8818 400.198 31.2451 400.198C31.5967 400.198 31.8984 400.125 32.1504 399.979C32.4023 399.832 32.6045 399.63 32.7568 399.372C32.9092 399.108 33.0205 398.804 33.0908 398.458C33.167 398.112 33.2051 397.74 33.2051 397.342V397.157C33.2051 396.771 33.167 396.407 33.0908 396.067C33.0205 395.722 32.9062 395.417 32.748 395.153C32.5957 394.884 32.3936 394.673 32.1416 394.521C31.8896 394.368 31.585 394.292 31.2275 394.292C30.8701 394.292 30.5654 394.368 30.3135 394.521C30.0674 394.673 29.8652 394.884 29.707 395.153C29.5547 395.417 29.4434 395.722 29.373 396.067C29.3027 396.407 29.2676 396.771 29.2676 397.157ZM39.7793 394.521V402H37.248V392.49H39.6211L39.7793 394.521ZM39.4102 396.911H38.7246C38.7246 396.208 38.8154 395.575 38.9971 395.013C39.1787 394.444 39.4336 393.961 39.7617 393.562C40.0898 393.158 40.4795 392.851 40.9307 392.64C41.3877 392.423 41.8975 392.314 42.46 392.314C42.9053 392.314 43.3125 392.379 43.6816 392.508C44.0508 392.637 44.3672 392.842 44.6309 393.123C44.9004 393.404 45.1055 393.776 45.2461 394.239C45.3926 394.702 45.4658 395.268 45.4658 395.936V402H42.917V395.927C42.917 395.505 42.8584 395.177 42.7412 394.942C42.624 394.708 42.4512 394.544 42.2227 394.45C42 394.351 41.7246 394.301 41.3965 394.301C41.0566 394.301 40.7607 394.368 40.5088 394.503C40.2627 394.638 40.0576 394.825 39.8936 395.065C39.7354 395.3 39.6152 395.575 39.5332 395.892C39.4512 396.208 39.4102 396.548 39.4102 396.911ZM51.7676 402.176C51.0293 402.176 50.3672 402.059 49.7812 401.824C49.1953 401.584 48.6973 401.253 48.2871 400.831C47.8828 400.409 47.5723 399.92 47.3555 399.363C47.1387 398.801 47.0303 398.203 47.0303 397.57V397.219C47.0303 396.498 47.1328 395.839 47.3379 395.241C47.543 394.644 47.8359 394.125 48.2168 393.686C48.6035 393.246 49.0723 392.909 49.623 392.675C50.1738 392.435 50.7949 392.314 51.4863 392.314C52.1602 392.314 52.7578 392.426 53.2793 392.648C53.8008 392.871 54.2373 393.188 54.5889 393.598C54.9463 394.008 55.2158 394.5 55.3975 395.074C55.5791 395.643 55.6699 396.275 55.6699 396.973V398.027H48.1113V396.34H53.1826V396.146C53.1826 395.795 53.1182 395.481 52.9893 395.206C52.8662 394.925 52.6787 394.702 52.4268 394.538C52.1748 394.374 51.8525 394.292 51.46 394.292C51.126 394.292 50.8389 394.365 50.5986 394.512C50.3584 394.658 50.1621 394.863 50.0098 395.127C49.8633 395.391 49.752 395.701 49.6758 396.059C49.6055 396.41 49.5703 396.797 49.5703 397.219V397.57C49.5703 397.951 49.623 398.303 49.7285 398.625C49.8398 398.947 49.9951 399.226 50.1943 399.46C50.3994 399.694 50.6455 399.876 50.9326 400.005C51.2256 400.134 51.5566 400.198 51.9258 400.198C52.3828 400.198 52.8076 400.11 53.2002 399.935C53.5986 399.753 53.9414 399.48 54.2285 399.117L55.459 400.453C55.2598 400.74 54.9873 401.016 54.6416 401.279C54.3018 401.543 53.8916 401.76 53.4111 401.93C52.9307 402.094 52.3828 402.176 51.7676 402.176ZM59.1504 392.49L60.7236 395.382L62.3408 392.49H65.0391L62.3496 397.14L65.1621 402H62.4551L60.7412 398.941L59.0273 402H56.3203L59.1328 397.14L56.4434 392.49H59.1504ZM71.4023 399.855V395.619C71.4023 395.314 71.3525 395.054 71.2529 394.837C71.1533 394.614 70.998 394.441 70.7871 394.318C70.582 394.195 70.3154 394.134 69.9873 394.134C69.7061 394.134 69.4629 394.184 69.2578 394.283C69.0527 394.377 68.8945 394.515 68.7832 394.696C68.6719 394.872 68.6162 395.08 68.6162 395.32H66.085C66.085 394.916 66.1787 394.532 66.3662 394.169C66.5537 393.806 66.8262 393.486 67.1836 393.211C67.541 392.93 67.9658 392.71 68.458 392.552C68.9561 392.394 69.5127 392.314 70.1279 392.314C70.8662 392.314 71.5225 392.438 72.0967 392.684C72.6709 392.93 73.1221 393.299 73.4502 393.791C73.7842 394.283 73.9512 394.898 73.9512 395.637V399.706C73.9512 400.228 73.9834 400.655 74.0479 400.989C74.1123 401.317 74.2061 401.604 74.3291 401.851V402H71.7715C71.6484 401.742 71.5547 401.42 71.4902 401.033C71.4316 400.641 71.4023 400.248 71.4023 399.855ZM71.7363 396.208L71.7539 397.641H70.3389C70.0049 397.641 69.7148 397.679 69.4688 397.755C69.2227 397.831 69.0205 397.939 68.8623 398.08C68.7041 398.215 68.5869 398.373 68.5107 398.555C68.4404 398.736 68.4053 398.936 68.4053 399.152C68.4053 399.369 68.4551 399.565 68.5547 399.741C68.6543 399.911 68.7979 400.046 68.9854 400.146C69.1729 400.239 69.3926 400.286 69.6445 400.286C70.0254 400.286 70.3564 400.21 70.6377 400.058C70.9189 399.905 71.1357 399.718 71.2881 399.495C71.4463 399.272 71.5283 399.062 71.5342 398.862L72.2021 399.935C72.1084 400.175 71.9795 400.424 71.8154 400.682C71.6572 400.939 71.4551 401.183 71.209 401.411C70.9629 401.634 70.667 401.818 70.3213 401.965C69.9756 402.105 69.5654 402.176 69.0908 402.176C68.4873 402.176 67.9395 402.056 67.4473 401.815C66.9609 401.569 66.5742 401.232 66.2871 400.805C66.0059 400.371 65.8652 399.879 65.8652 399.328C65.8652 398.83 65.959 398.388 66.1465 398.001C66.334 397.614 66.6094 397.289 66.9727 397.025C67.3418 396.756 67.8018 396.554 68.3525 396.419C68.9033 396.278 69.542 396.208 70.2686 396.208H71.7363ZM71.9648 388.544L73.4238 388.641C73.4238 389.068 73.3389 389.458 73.1689 389.81C72.999 390.155 72.7646 390.434 72.4658 390.645C72.167 390.85 71.8242 390.952 71.4375 390.952C71.1562 390.952 70.9131 390.914 70.708 390.838C70.5088 390.762 70.3242 390.674 70.1543 390.574C69.9844 390.469 69.8086 390.378 69.627 390.302C69.4512 390.226 69.249 390.188 69.0205 390.188C68.8154 390.188 68.6396 390.261 68.4932 390.407C68.3525 390.554 68.2822 390.765 68.2822 391.04L66.8145 390.961C66.8145 390.539 66.8994 390.152 67.0693 389.801C67.2393 389.449 67.4736 389.168 67.7725 388.957C68.0713 388.74 68.4111 388.632 68.792 388.632C69.0322 388.632 69.252 388.673 69.4512 388.755C69.6504 388.831 69.8408 388.919 70.0225 389.019C70.21 389.118 70.4004 389.206 70.5938 389.282C70.7871 389.358 70.9922 389.396 71.209 389.396C71.4141 389.396 71.5898 389.323 71.7363 389.177C71.8887 389.024 71.9648 388.813 71.9648 388.544ZM75.498 397.342V397.157C75.498 396.46 75.5977 395.818 75.7969 395.232C75.9961 394.641 76.2861 394.128 76.667 393.694C77.0479 393.261 77.5166 392.924 78.0732 392.684C78.6299 392.438 79.2686 392.314 79.9893 392.314C80.71 392.314 81.3516 392.438 81.9141 392.684C82.4766 392.924 82.9482 393.261 83.3291 393.694C83.7158 394.128 84.0088 394.641 84.208 395.232C84.4072 395.818 84.5068 396.46 84.5068 397.157V397.342C84.5068 398.033 84.4072 398.675 84.208 399.267C84.0088 399.853 83.7158 400.365 83.3291 400.805C82.9482 401.238 82.4795 401.575 81.9229 401.815C81.3662 402.056 80.7275 402.176 80.0068 402.176C79.2861 402.176 78.6445 402.056 78.082 401.815C77.5254 401.575 77.0537 401.238 76.667 400.805C76.2861 400.365 75.9961 399.853 75.7969 399.267C75.5977 398.675 75.498 398.033 75.498 397.342ZM78.0293 397.157V397.342C78.0293 397.74 78.0645 398.112 78.1348 398.458C78.2051 398.804 78.3164 399.108 78.4688 399.372C78.627 399.63 78.832 399.832 79.084 399.979C79.3359 400.125 79.6436 400.198 80.0068 400.198C80.3584 400.198 80.6602 400.125 80.9121 399.979C81.1641 399.832 81.3662 399.63 81.5186 399.372C81.6709 399.108 81.7822 398.804 81.8525 398.458C81.9287 398.112 81.9668 397.74 81.9668 397.342V397.157C81.9668 396.771 81.9287 396.407 81.8525 396.067C81.7822 395.722 81.668 395.417 81.5098 395.153C81.3574 394.884 81.1553 394.673 80.9033 394.521C80.6514 394.368 80.3467 394.292 79.9893 394.292C79.6318 394.292 79.3271 394.368 79.0752 394.521C78.8291 394.673 78.627 394.884 78.4688 395.153C78.3164 395.417 78.2051 395.722 78.1348 396.067C78.0645 396.407 78.0293 396.771 78.0293 397.157ZM95.6865 397.438H92.4258V395.382H95.6865C96.1904 395.382 96.6006 395.3 96.917 395.136C97.2334 394.966 97.4648 394.731 97.6113 394.433C97.7578 394.134 97.8311 393.797 97.8311 393.422C97.8311 393.041 97.7578 392.687 97.6113 392.358C97.4648 392.03 97.2334 391.767 96.917 391.567C96.6006 391.368 96.1904 391.269 95.6865 391.269H93.3398V402H90.7031V389.203H95.6865C96.6885 389.203 97.5469 389.385 98.2617 389.748C98.9824 390.105 99.5332 390.601 99.9141 391.233C100.295 391.866 100.485 392.59 100.485 393.404C100.485 394.23 100.295 394.945 99.9141 395.549C99.5332 396.152 98.9824 396.618 98.2617 396.946C97.5469 397.274 96.6885 397.438 95.6865 397.438ZM104.678 394.564V402H102.146V392.49H104.528L104.678 394.564ZM107.543 392.429L107.499 394.775C107.376 394.758 107.227 394.743 107.051 394.731C106.881 394.714 106.726 394.705 106.585 394.705C106.228 394.705 105.917 394.752 105.653 394.846C105.396 394.934 105.179 395.065 105.003 395.241C104.833 395.417 104.704 395.631 104.616 395.883C104.534 396.135 104.487 396.422 104.476 396.744L103.966 396.586C103.966 395.971 104.027 395.405 104.15 394.89C104.273 394.368 104.452 393.914 104.687 393.527C104.927 393.141 105.22 392.842 105.565 392.631C105.911 392.42 106.307 392.314 106.752 392.314C106.893 392.314 107.036 392.326 107.183 392.35C107.329 392.367 107.449 392.394 107.543 392.429ZM108.07 397.342V397.157C108.07 396.46 108.17 395.818 108.369 395.232C108.568 394.641 108.858 394.128 109.239 393.694C109.62 393.261 110.089 392.924 110.646 392.684C111.202 392.438 111.841 392.314 112.562 392.314C113.282 392.314 113.924 392.438 114.486 392.684C115.049 392.924 115.521 393.261 115.901 393.694C116.288 394.128 116.581 394.641 116.78 395.232C116.979 395.818 117.079 396.46 117.079 397.157V397.342C117.079 398.033 116.979 398.675 116.78 399.267C116.581 399.853 116.288 400.365 115.901 400.805C115.521 401.238 115.052 401.575 114.495 401.815C113.938 402.056 113.3 402.176 112.579 402.176C111.858 402.176 111.217 402.056 110.654 401.815C110.098 401.575 109.626 401.238 109.239 400.805C108.858 400.365 108.568 399.853 108.369 399.267C108.17 398.675 108.07 398.033 108.07 397.342ZM110.602 397.157V397.342C110.602 397.74 110.637 398.112 110.707 398.458C110.777 398.804 110.889 399.108 111.041 399.372C111.199 399.63 111.404 399.832 111.656 399.979C111.908 400.125 112.216 400.198 112.579 400.198C112.931 400.198 113.232 400.125 113.484 399.979C113.736 399.832 113.938 399.63 114.091 399.372C114.243 399.108 114.354 398.804 114.425 398.458C114.501 398.112 114.539 397.74 114.539 397.342V397.157C114.539 396.771 114.501 396.407 114.425 396.067C114.354 395.722 114.24 395.417 114.082 395.153C113.93 394.884 113.728 394.673 113.476 394.521C113.224 394.368 112.919 394.292 112.562 394.292C112.204 394.292 111.899 394.368 111.647 394.521C111.401 394.673 111.199 394.884 111.041 395.153C110.889 395.417 110.777 395.722 110.707 396.067C110.637 396.407 110.602 396.771 110.602 397.157ZM121.86 402H119.312V391.646C119.312 390.926 119.452 390.319 119.733 389.827C120.021 389.329 120.422 388.954 120.938 388.702C121.459 388.444 122.077 388.315 122.792 388.315C123.026 388.315 123.252 388.333 123.469 388.368C123.686 388.397 123.896 388.436 124.102 388.482L124.075 390.39C123.964 390.36 123.847 390.34 123.724 390.328C123.601 390.316 123.457 390.311 123.293 390.311C122.988 390.311 122.728 390.363 122.511 390.469C122.3 390.568 122.139 390.718 122.027 390.917C121.916 391.116 121.86 391.359 121.86 391.646V402ZM123.759 392.49V394.283H117.896V392.49H123.759ZM130.711 399.724V392.49H133.242V402H130.86L130.711 399.724ZM130.992 397.772L131.739 397.755C131.739 398.388 131.666 398.977 131.52 399.521C131.373 400.061 131.153 400.529 130.86 400.928C130.567 401.32 130.198 401.628 129.753 401.851C129.308 402.067 128.783 402.176 128.18 402.176C127.717 402.176 127.289 402.111 126.896 401.982C126.51 401.848 126.176 401.64 125.895 401.358C125.619 401.071 125.402 400.705 125.244 400.26C125.092 399.809 125.016 399.267 125.016 398.634V392.49H127.547V398.651C127.547 398.933 127.579 399.17 127.644 399.363C127.714 399.557 127.811 399.715 127.934 399.838C128.057 399.961 128.2 400.049 128.364 400.102C128.534 400.154 128.722 400.181 128.927 400.181C129.448 400.181 129.858 400.075 130.157 399.864C130.462 399.653 130.676 399.366 130.799 399.003C130.928 398.634 130.992 398.224 130.992 397.772ZM137.654 394.521V402H135.123V392.49H137.496L137.654 394.521ZM137.285 396.911H136.6C136.6 396.208 136.69 395.575 136.872 395.013C137.054 394.444 137.309 393.961 137.637 393.562C137.965 393.158 138.354 392.851 138.806 392.64C139.263 392.423 139.772 392.314 140.335 392.314C140.78 392.314 141.188 392.379 141.557 392.508C141.926 392.637 142.242 392.842 142.506 393.123C142.775 393.404 142.98 393.776 143.121 394.239C143.268 394.702 143.341 395.268 143.341 395.936V402H140.792V395.927C140.792 395.505 140.733 395.177 140.616 394.942C140.499 394.708 140.326 394.544 140.098 394.45C139.875 394.351 139.6 394.301 139.271 394.301C138.932 394.301 138.636 394.368 138.384 394.503C138.138 394.638 137.933 394.825 137.769 395.065C137.61 395.3 137.49 395.575 137.408 395.892C137.326 396.208 137.285 396.548 137.285 396.911ZM150.882 399.926V388.5H153.431V402H151.137L150.882 399.926ZM144.87 397.359V397.175C144.87 396.448 144.952 395.789 145.116 395.197C145.28 394.6 145.521 394.087 145.837 393.659C146.153 393.231 146.543 392.9 147.006 392.666C147.469 392.432 147.996 392.314 148.588 392.314C149.145 392.314 149.631 392.432 150.047 392.666C150.469 392.9 150.826 393.234 151.119 393.668C151.418 394.096 151.658 394.603 151.84 395.188C152.021 395.769 152.153 396.404 152.235 397.096V397.5C152.153 398.162 152.021 398.777 151.84 399.346C151.658 399.914 151.418 400.412 151.119 400.84C150.826 401.262 150.469 401.59 150.047 401.824C149.625 402.059 149.133 402.176 148.57 402.176C147.979 402.176 147.451 402.056 146.988 401.815C146.531 401.575 146.145 401.238 145.828 400.805C145.518 400.371 145.28 399.861 145.116 399.275C144.952 398.689 144.87 398.051 144.87 397.359ZM147.401 397.175V397.359C147.401 397.752 147.431 398.118 147.489 398.458C147.554 398.798 147.656 399.1 147.797 399.363C147.943 399.621 148.131 399.823 148.359 399.97C148.594 400.11 148.878 400.181 149.212 400.181C149.646 400.181 150.003 400.084 150.284 399.891C150.565 399.691 150.779 399.419 150.926 399.073C151.078 398.728 151.166 398.329 151.189 397.878V396.727C151.172 396.357 151.119 396.026 151.031 395.733C150.949 395.435 150.826 395.18 150.662 394.969C150.504 394.758 150.305 394.594 150.064 394.477C149.83 394.359 149.552 394.301 149.229 394.301C148.901 394.301 148.62 394.377 148.386 394.529C148.151 394.676 147.961 394.878 147.814 395.136C147.674 395.394 147.568 395.698 147.498 396.05C147.434 396.396 147.401 396.771 147.401 397.175ZM160.541 399.855V395.619C160.541 395.314 160.491 395.054 160.392 394.837C160.292 394.614 160.137 394.441 159.926 394.318C159.721 394.195 159.454 394.134 159.126 394.134C158.845 394.134 158.602 394.184 158.396 394.283C158.191 394.377 158.033 394.515 157.922 394.696C157.811 394.872 157.755 395.08 157.755 395.32H155.224C155.224 394.916 155.317 394.532 155.505 394.169C155.692 393.806 155.965 393.486 156.322 393.211C156.68 392.93 157.104 392.71 157.597 392.552C158.095 392.394 158.651 392.314 159.267 392.314C160.005 392.314 160.661 392.438 161.235 392.684C161.81 392.93 162.261 393.299 162.589 393.791C162.923 394.283 163.09 394.898 163.09 395.637V399.706C163.09 400.228 163.122 400.655 163.187 400.989C163.251 401.317 163.345 401.604 163.468 401.851V402H160.91C160.787 401.742 160.693 401.42 160.629 401.033C160.57 400.641 160.541 400.248 160.541 399.855ZM160.875 396.208L160.893 397.641H159.478C159.144 397.641 158.854 397.679 158.607 397.755C158.361 397.831 158.159 397.939 158.001 398.08C157.843 398.215 157.726 398.373 157.649 398.555C157.579 398.736 157.544 398.936 157.544 399.152C157.544 399.369 157.594 399.565 157.693 399.741C157.793 399.911 157.937 400.046 158.124 400.146C158.312 400.239 158.531 400.286 158.783 400.286C159.164 400.286 159.495 400.21 159.776 400.058C160.058 399.905 160.274 399.718 160.427 399.495C160.585 399.272 160.667 399.062 160.673 398.862L161.341 399.935C161.247 400.175 161.118 400.424 160.954 400.682C160.796 400.939 160.594 401.183 160.348 401.411C160.102 401.634 159.806 401.818 159.46 401.965C159.114 402.105 158.704 402.176 158.229 402.176C157.626 402.176 157.078 402.056 156.586 401.815C156.1 401.569 155.713 401.232 155.426 400.805C155.145 400.371 155.004 399.879 155.004 399.328C155.004 398.83 155.098 398.388 155.285 398.001C155.473 397.614 155.748 397.289 156.111 397.025C156.48 396.756 156.94 396.554 157.491 396.419C158.042 396.278 158.681 396.208 159.407 396.208H160.875Z" fill="#274C5B"/>
<defs>
<clipPath id="clip0_1_159">
<rect width="150" height="150" fill="white" transform="translate(68.75 148)"/>
</clipPath>
<clipPath id="clip1_1_159">
<rect width="150" height="150" fill="white" transform="translate(68.75 148)"/>
</clipPath>
</defs>
</svg>
