<svg width="57" height="56" viewBox="0 0 57 56" fill="none" xmlns="http://www.w3.org/2000/svg">
<path d="M55.8829 52.4664L40.9818 38.0614C44.6949 34.0966 46.9801 28.8586 46.9801 23.1024C46.9778 10.7859 36.6124 0.765625 23.8717 0.765625C11.131 0.765625 0.765625 10.7859 0.765625 23.1024C0.765625 35.419 11.131 45.4393 23.8717 45.4393C29.8262 45.4393 35.2445 43.2324 39.3459 39.6406L54.247 54.0457L55.8829 52.4664ZM23.8717 43.2056C12.4065 43.2056 3.07623 34.186 3.07623 23.1024C3.07623 12.0189 12.4065 2.99931 23.8717 2.99931C35.337 2.99931 44.6672 12.0189 44.6672 23.1024C44.6672 34.186 35.3393 43.2056 23.8717 43.2056Z" fill="black" stroke="black" stroke-width="1.53104"/>
</svg>
